<svg xmlns="http://www.w3.org/2000/svg" width="48" height="48" viewBox="0 0 48 48" fill="none">
<path fill-rule="evenodd" clip-rule="evenodd" d="M10.5 20.11V16C10.5 12.4196 11.9223 8.9858 14.4541 6.45406C16.9858 3.92232 20.4196 2.5 24 2.5C27.5804 2.5 31.0142 3.92232 33.5459 6.45406C36.0777 8.9858 37.5 12.4196 37.5 16V20.11C39.73 20.276 41.18 20.696 42.242 21.758C44 23.514 44 26.344 44 32C44 37.656 44 40.486 42.242 42.242C40.486 44 37.656 44 32 44H16C10.344 44 7.514 44 5.758 42.242C4 40.486 4 37.656 4 32C4 26.344 4 23.514 5.758 21.758C6.818 20.696 8.27 20.276 10.5 20.11ZM13.5 16C13.5 13.2152 14.6062 10.5445 16.5754 8.57538C18.5445 6.60625 21.2152 5.5 24 5.5C26.7848 5.5 29.4555 6.60625 31.4246 8.57538C33.3938 10.5445 34.5 13.2152 34.5 16V20.008C33.7347 20.0013 32.9013 19.9987 32 20H16C15.0973 19.9987 14.264 20.0013 13.5 20.008V16ZM16 34C16.5304 34 17.0391 33.7893 17.4142 33.4142C17.7893 33.0391 18 32.5304 18 32C18 31.4696 17.7893 30.9609 17.4142 30.5858C17.0391 30.2107 16.5304 30 16 30C15.4696 30 14.9609 30.2107 14.5858 30.5858C14.2107 30.9609 14 31.4696 14 32C14 32.5304 14.2107 33.0391 14.5858 33.4142C14.9609 33.7893 15.4696 34 16 34ZM24 34C24.5304 34 25.0391 33.7893 25.4142 33.4142C25.7893 33.0391 26 32.5304 26 32C26 31.4696 25.7893 30.9609 25.4142 30.5858C25.0391 30.2107 24.5304 30 24 30C23.4696 30 22.9609 30.2107 22.5858 30.5858C22.2107 30.9609 22 31.4696 22 32C22 32.5304 22.2107 33.0391 22.5858 33.4142C22.9609 33.7893 23.4696 34 24 34ZM34 32C34 32.5304 33.7893 33.0391 33.4142 33.4142C33.0391 33.7893 32.5304 34 32 34C31.4696 34 30.9609 33.7893 30.5858 33.4142C30.2107 33.0391 30 32.5304 30 32C30 31.4696 30.2107 30.9609 30.5858 30.5858C30.9609 30.2107 31.4696 30 32 30C32.5304 30 33.0391 30.2107 33.4142 30.5858C33.7893 30.9609 34 31.4696 34 32Z" fill="#0A67C2"/>
</svg>